<?xml version="1.0" standalone="no"?>
<!DOCTYPE svg PUBLIC "-//W3C//DTD SVG 20010904//EN"
 "http://www.w3.org/TR/2001/REC-SVG-20010904/DTD/svg10.dtd">
<svg version="1.0" xmlns="http://www.w3.org/2000/svg"
 width="500.000000pt" height="500.000000pt" viewBox="0 0 500.000000 500.000000"
 preserveAspectRatio="xMidYMid meet">

<g transform="translate(0.000000,500.000000) scale(0.100000,-0.100000)"
fill="#000000" stroke="none">
<path d="M808 3072 l-188 -2 0 -55 0 -55 65 0 65 0 0 -225 0 -225 65 0 65 0 0
225 0 225 55 0 55 0 0 -225 0 -225 65 0 64 0 3 113 3 112 88 3 87 3 0 -116 0
-115 65 0 c63 0 65 1 65 25 0 14 2 25 5 25 3 0 28 -12 56 -26 61 -30 164 -42
227 -25 54 15 107 62 122 107 l12 35 39 -45 c79 -90 213 -126 333 -92 53 16
62 16 97 2 143 -57 289 35 237 149 -10 22 -71 59 -130 79 -21 6 -24 32 -4 39
7 3 33 1 56 -4 34 -8 45 -7 54 6 9 12 23 -6 77 -103 l67 -117 -59 -111 c-32
-61 -59 -114 -59 -118 0 -3 30 -6 68 -6 l67 0 115 221 c106 204 115 218 124
192 13 -41 42 -69 98 -93 35 -15 48 -26 46 -38 -5 -25 -41 -26 -85 -4 l-39 20
-22 -38 c-12 -22 -22 -42 -22 -45 0 -15 90 -45 138 -45 121 0 191 76 150 165
-10 22 -71 59 -130 79 -10 3 -18 12 -18 20 0 15 27 29 40 21 4 -2 34 -7 66
-10 33 -3 62 -9 66 -13 3 -4 8 -51 10 -105 3 -97 4 -99 36 -128 35 -31 86 -38
137 -19 22 9 26 15 21 35 l-6 25 44 -32 c79 -55 189 -50 262 14 l34 30 0 -36
0 -36 60 0 60 0 0 113 c0 132 8 150 60 145 49 -4 60 -32 60 -155 l0 -103 60 0
60 0 0 118 c0 130 5 142 55 142 50 0 55 -12 55 -142 l0 -118 66 0 66 0 -4 138
c-3 112 -7 144 -21 166 -44 67 -165 74 -217 11 -12 -14 -15 -14 -34 4 -47 44
-111 52 -169 21 -31 -17 -37 -17 -37 -5 0 12 -13 15 -60 15 l-60 0 0 -51 0
-52 -23 34 c-55 84 -184 103 -272 41 l-45 -32 0 30 c0 28 -3 30 -35 30 l-35 0
0 65 0 65 -60 0 -60 0 0 -66 0 -66 -97 7 c-86 6 -103 4 -136 -14 -29 -15 -37
-16 -33 -5 4 11 -8 14 -64 14 l-69 0 -41 -87 -41 -88 -22 37 c-12 20 -34 59
-49 86 l-26 49 -125 7 c-98 5 -133 4 -159 -7 -49 -21 -73 -52 -73 -97 0 -48
29 -80 97 -110 35 -15 48 -26 46 -38 -5 -25 -41 -26 -86 -3 l-39 20 -10 -22
c-10 -21 -11 -21 -28 13 -10 19 -18 36 -20 38 -1 1 -16 -5 -34 -14 -45 -23
-151 -16 -188 12 -74 55 -93 140 -51 216 39 70 136 102 218 74 25 -9 48 -16
52 -16 4 0 19 22 33 49 20 40 22 51 11 60 -28 23 -102 41 -170 41 -57 0 -83
-5 -131 -29 -101 -47 -175 -152 -175 -248 l0 -34 -33 25 c-17 13 -61 38 -97
54 -36 16 -71 36 -78 45 -20 24 -11 50 22 66 26 12 36 11 80 -3 28 -10 56 -19
61 -22 10 -4 55 75 55 96 0 17 -110 50 -168 50 -92 0 -164 -52 -181 -131 -17
-79 27 -147 128 -194 97 -46 125 -87 79 -119 -34 -24 -87 -19 -146 14 l-53 29
-29 -47 -30 -47 0 243 0 242 -65 0 -65 0 0 -110 0 -110 -90 0 -90 0 0 109 0
109 -62 4 c-35 1 -147 2 -250 0z m2806 -288 c9 -4 21 -15 27 -25 9 -18 5 -19
-56 -19 -50 0 -65 3 -65 15 0 27 55 44 94 29z m-219 -94 c0 -75 -1 -81 -20
-78 -18 3 -20 12 -23 81 -3 74 -2 77 20 77 22 0 23 -3 23 -80z m365 -60 l0
-40 -45 22 c-42 20 -45 21 -63 5 -27 -24 -97 -22 -122 3 -11 11 -20 27 -20 35
0 13 21 15 125 15 l125 0 0 -40z"/>
<path d="M1080 2145 c-10 -12 -10 -18 0 -30 7 -8 19 -15 26 -15 8 0 14 -7 14
-16 0 -13 -6 -15 -27 -9 -21 5 -25 4 -17 -5 17 -17 58 -8 62 12 2 11 -6 22
-22 29 -34 16 -33 29 2 29 21 0 24 2 12 10 -21 14 -36 12 -50 -5z"/>
<path d="M1423 2110 c0 -30 2 -43 4 -27 2 15 2 39 0 55 -2 15 -4 2 -4 -28z"/>
<path d="M1880 2152 c0 -4 9 -8 20 -9 11 -1 20 2 20 8 0 5 -9 9 -20 9 -11 0
-20 -4 -20 -8z"/>
<path d="M3182 2133 c-8 -8 -9 -13 -2 -13 5 0 10 -13 10 -30 0 -16 4 -30 9
-30 4 0 6 12 3 26 -2 14 0 29 6 33 6 4 6 10 -2 17 -9 8 -15 7 -24 -3z"/>
<path d="M1245 2110 c-8 -27 12 -52 39 -48 16 2 21 10 21 33 0 25 -4 31 -27
33 -19 2 -28 -2 -33 -18z m53 -13 c4 -21 -27 -35 -38 -17 -12 19 0 42 19 38 9
-2 17 -11 19 -21z"/>
<path d="M1543 2100 c2 -30 5 -35 27 -35 22 0 25 5 27 35 1 34 1 34 -5 5 -4
-17 -14 -30 -22 -30 -8 0 -18 13 -22 30 -6 29 -6 29 -5 -5z"/>
<path d="M1714 2116 c-11 -28 1 -51 26 -53 25 -3 25 -3 3 7 -13 5 -23 16 -23
25 0 9 10 20 23 25 l22 9 -23 0 c-12 1 -25 -5 -28 -13z"/>
<path d="M1874 2116 c-11 -28 1 -51 25 -51 32 0 49 28 32 49 -17 20 -50 21
-57 2z m46 -15 c0 -11 -5 -23 -11 -27 -15 -9 -33 12 -26 30 9 23 37 20 37 -3z"/>
<path d="M2044 2116 c-11 -29 1 -51 29 -54 15 -2 27 1 27 6 0 6 -8 8 -19 5
-10 -3 -22 0 -25 6 -5 7 3 11 19 11 20 0 26 4 23 18 -4 22 -46 29 -54 8z m46
-6 c0 -5 -7 -10 -15 -10 -8 0 -15 5 -15 10 0 6 7 10 15 10 8 0 15 -4 15 -10z"/>
<path d="M2210 2116 c0 -7 10 -21 23 -30 l22 -17 -22 5 c-13 2 -23 0 -23 -5 0
-13 38 -11 46 2 4 7 -3 20 -16 29 -22 17 -23 18 -4 23 16 4 16 5 -3 6 -14 1
-23 -5 -23 -13z"/>
<path d="M2370 2115 c-26 -31 26 -74 54 -45 8 9 6 11 -11 6 -12 -4 -24 -2 -28
4 -4 6 4 10 20 10 20 0 26 4 23 18 -4 23 -41 27 -58 7z m40 -5 c0 -5 -7 -10
-15 -10 -8 0 -15 5 -15 10 0 6 7 10 15 10 8 0 15 -4 15 -10z"/>
<path d="M2530 2100 c0 -16 5 -32 10 -35 6 -4 10 7 10 24 0 44 30 42 31 -1 l1
-33 9 33 c12 39 31 37 40 -4 6 -28 7 -28 8 7 l1 37 -55 1 c-54 0 -55 0 -55
-29z"/>
<path d="M2750 2116 c0 -7 10 -21 23 -30 l22 -17 -22 5 c-13 2 -23 0 -23 -5 0
-13 38 -11 46 2 4 7 -3 20 -16 29 -22 17 -23 18 -4 23 16 4 16 5 -3 6 -14 1
-23 -5 -23 -13z"/>
<path d="M2900 2095 c0 -19 5 -35 10 -35 6 0 10 16 10 35 0 19 -4 35 -10 35
-5 0 -10 -16 -10 -35z"/>
<path d="M3025 2120 c-8 -14 3 -30 21 -30 8 0 14 -5 14 -11 0 -6 -9 -9 -20 -6
-11 3 -18 1 -14 -4 11 -18 44 -10 44 11 0 11 -7 20 -15 20 -21 0 -19 18 3 23
13 4 12 5 -5 6 -12 0 -25 -3 -28 -9z"/>
<path d="M3324 2116 c-11 -29 1 -51 29 -54 15 -2 27 1 27 6 0 6 -8 8 -19 5
-10 -3 -22 0 -25 6 -5 7 3 11 19 11 20 0 26 4 23 18 -4 22 -46 29 -54 8z m46
-6 c0 -5 -7 -10 -15 -10 -8 0 -15 5 -15 10 0 6 7 10 15 10 8 0 15 -4 15 -10z"/>
<path d="M3491 2092 c1 -36 2 -36 8 -7 3 17 13 30 21 30 8 0 17 -13 21 -30 l6
-30 4 29 c6 41 29 46 29 7 0 -17 5 -31 11 -31 6 0 9 14 7 33 -3 31 -4 32 -55
34 l-53 3 1 -38z"/>
<path d="M3705 2110 c-9 -27 11 -50 41 -48 20 2 24 8 24 35 0 30 -3 33 -29 33
-21 0 -32 -6 -36 -20z m50 -15 c0 -28 -29 -25 -33 3 -3 19 0 23 15 20 10 -2
18 -12 18 -23z"/>
<path d="M3880 2116 c0 -7 10 -21 23 -30 l22 -17 -22 5 c-13 2 -23 0 -23 -5 0
-13 38 -11 46 2 4 7 -3 20 -16 29 -22 17 -23 18 -4 23 16 4 16 5 -3 6 -14 1
-23 -5 -23 -13z"/>
</g>
</svg>
